<svg width="25" height="25" viewBox="0 0 392 512" fill="none" xmlns="http://www.w3.org/2000/svg">
<path d="M180.941 240.941H211.059V406.588H180.941V240.941ZM120.706 240.941H150.823V406.588H120.706V240.941ZM241.176 240.941H271.294V406.588H241.176V240.941Z" fill="white"/>
<path d="M391.765 60.2353H271.294V45.1765C271.294 20.2662 251.029 0 226.118 0H165.882C140.971 0 120.706 20.2662 120.706 45.1765V60.2353H0.235229V150.588H31.6058L59.2979 469.075C59.8491 480.662 64.8467 491.59 73.2509 499.585C81.6551 507.58 92.8185 512.027 104.418 512H287.581C299.18 512.027 310.344 507.58 318.748 499.585C327.152 491.59 332.15 480.662 332.701 469.075L360.394 150.588H391.765V60.2353ZM150.823 45.1765C150.823 36.873 157.579 30.1176 165.882 30.1176H226.118C234.422 30.1176 241.176 36.873 241.176 45.1765V60.2353H150.823V45.1765ZM30.3529 90.3529H361.647V120.471H30.3529V90.3529ZM302.627 467.45C302.474 471.335 300.821 475.009 298.015 477.701C295.21 480.392 291.47 481.891 287.582 481.882H104.418C100.53 481.891 96.79 480.393 93.9842 477.701C91.1783 475.01 89.5252 471.335 89.3724 467.45L61.8359 150.588H330.164C330.084 151.497 331.959 129.939 302.627 467.45Z" fill="#2A5B84"/>
</svg>
