<svg width="25" height="25" viewBox="0 0 473 470" fill="none" xmlns="http://www.w3.org/2000/svg">
<path d="M224 381.24H88C81.3726 381.24 76 386.613 76 393.24C76 399.867 81.3726 405.24 88 405.24H224C230.627 405.24 236 399.867 236 393.24C236 386.613 230.627 381.24 224 381.24Z" fill="white"/>
<path d="M144 325.24H88C81.3726 325.24 76 330.613 76 337.24C76 343.867 81.3726 349.24 88 349.24H144C150.627 349.24 156 343.867 156 337.24C156 330.613 150.627 325.24 144 325.24Z" fill="white"/>
<path d="M209.92 296.12C205.565 296.084 201.26 295.189 197.252 293.486C193.244 291.784 189.61 289.308 186.56 286.2C182.363 282.146 179.355 277.022 177.86 271.382C176.366 265.742 176.442 259.8 178.08 254.2L191.04 211.16C193.311 203.551 197.434 196.624 203.04 191L383.2 11.0001C386.411 7.77815 390.226 5.22173 394.427 3.47742C398.628 1.73311 403.131 0.835205 407.68 0.835205C412.229 0.835205 416.732 1.73311 420.933 3.47742C425.134 5.22173 428.949 7.77815 432.16 11.0001L461.28 40.1201C467.774 46.5321 471.603 55.1625 472 64.2801C472.269 68.8222 471.566 73.3694 469.938 77.6183C468.31 81.8673 465.795 85.7202 462.56 88.9201L282.08 269.88C276.456 275.486 269.529 279.609 261.92 281.88L218.88 294.84C215.969 295.689 212.952 296.12 209.92 296.12ZM406.72 24.1201C405.536 24.0941 404.359 24.3075 403.259 24.7473C402.159 25.1872 401.16 25.8446 400.32 26.6801L220 207.64C217.226 210.461 215.192 213.923 214.08 217.72L201.12 260.76C200.759 262.274 200.805 263.856 201.255 265.346C201.705 266.835 202.542 268.179 203.68 269.24C204.731 270.392 206.074 271.239 207.567 271.689C209.06 272.14 210.647 272.178 212.16 271.8L255.2 258.84C258.997 257.728 262.459 255.694 265.28 252.92L445.44 72.4401C446.308 71.5575 446.983 70.5047 447.424 69.3481C447.864 68.1916 448.06 66.9562 448 65.7201C447.771 62.5853 446.338 59.6609 444 57.5601L415.2 28.4401C412.919 26.1208 409.813 24.7979 406.56 24.7601L406.72 24.1201Z" fill="#2A5B84"/>
<path d="M340.752 69.6402L357.712 52.6802L419.952 114.888L402.976 131.848L340.752 69.6402ZM24 173.08V118.04C24 109.553 27.3714 101.414 33.3726 95.4128C39.3737 89.4116 47.5131 86.0402 56 86.0402H224C227.183 86.0402 230.235 84.7759 232.485 82.5255C234.736 80.275 236 77.2228 236 74.0402C236 70.8576 234.736 67.8053 232.485 65.5549C230.235 63.3045 227.183 62.0402 224 62.0402H56.8C41.8733 62.0387 27.5459 67.913 16.9166 78.3927C6.28719 88.8723 0.210235 103.115 0 118.04V173.08C0 176.263 1.26428 179.315 3.51472 181.565C5.76516 183.816 8.8174 185.08 12 185.08C15.1826 185.08 18.2348 183.816 20.4853 181.565C22.7357 179.315 24 176.263 24 173.08ZM396 233.24C392.817 233.24 389.765 234.504 387.515 236.755C385.264 239.005 384 242.058 384 245.24V412.44C384 420.927 380.629 429.066 374.627 435.068C368.626 441.069 360.487 444.44 352 444.44H56.8C48.3131 444.44 40.1737 441.069 34.1726 435.068C28.1714 429.066 24.8 420.927 24.8 412.44V369.24C24.8037 367.595 24.4689 365.966 23.8164 364.455C23.1639 362.945 22.2078 361.584 21.0073 360.459C19.8069 359.334 18.3878 358.467 16.8382 357.913C15.2887 357.36 13.6418 357.13 12 357.24C8.8174 357.24 5.76516 358.504 3.51472 360.755C1.26428 363.005 0 366.058 0 369.24V412.44C0 419.899 1.46918 427.285 4.32364 434.177C7.17811 441.068 11.362 447.329 16.6363 452.604C21.9107 457.878 28.1723 462.062 35.0636 464.917C41.9549 467.771 49.3409 469.24 56.8 469.24H351.2C358.659 469.24 366.045 467.771 372.936 464.917C379.828 462.062 386.089 457.878 391.364 452.604C396.638 447.329 400.822 441.068 403.676 434.177C406.531 427.285 408 419.899 408 412.44V245.24C408 242.058 406.736 239.005 404.485 236.755C402.235 234.504 399.183 233.24 396 233.24Z" fill="#2A5B84"/>
<path d="M24 259.96C24 253.333 18.6274 247.96 12 247.96C5.37258 247.96 0 253.333 0 259.96V304.92C0 311.548 5.37258 316.92 12 316.92C18.6274 316.92 24 311.548 24 304.92V259.96Z" fill="#2A5B84"/>
</svg>
